#!OML:ASF F:\VICON\USERDATA\INSTALL\rory3\rory3.ASF
:FULLY-SPECIFIED
:DEGREES
320
root -1.9984 17.0197 -19.0422 103.362 -78.1549 -448.338
lowerback 0.613559 -5.51703 -2.18999
upperback -3.7621 -7.50426 0.244684
thorax -3.9114 -3.69574 1.74789
lowerneck -14.3422 -6.55911 -12.5164
upperneck 23.7381 -11.0255 15.6729
head 11.7387 -4.70619 6.26667
rclavicle -8.36883e-014 1.59028e-014
rhumerus -51.2184 -9.74279 -78.5783
rradius 26.0872
rwrist 4.70314
rhand -24.0417 -55.1692
rfingers 7.12502
rthumb 2.43711 -85.135
lclavicle -8.36883e-014 1.59028e-014
lhumerus -5.29655 -14.3856 39.5968
lradius 56.2822
lwrist 8.45513
lhand -42.071 319.371
lfingers 7.12502
lthumb -14.9636 -11.1893
rfemur -48.1941 -9.79689 35.5178
rtibia 44.046
rfoot -1.99023 -26.6334
rtoes 3.7643
lfemur -36.3955 29.5424 -12.0915
ltibia 51.6447
lfoot -35.6765 38.2848
ltoes 11.7586
321
root -2.10103 16.9982 -19.1757 102.868 -77.4262 -448.502
lowerback 0.22937 -5.62939 -1.07855
upperback -3.89425 -7.62222 0.376999
thorax -3.95167 -3.79137 1.25456
lowerneck -13.6533 -6.65559 -13.0725
upperneck 24.3028 -11.3652 16.0053
head 11.9342 -4.93282 6.47613
rclavicle -9.30312e-014 -2.8625e-014
rhumerus -52.3283 -9.41328 -79.3047
rradius 26.2641
rwrist 5.32567
rhand -24.3725 -54.9071
rfingers 7.12502
rthumb 2.11757 -84.8764
lclavicle -9.30312e-014 -2.8625e-014
lhumerus -5.12133 -14.3449 39.6989
lradius 56.1975
lwrist 7.25374
lhand -40.9912 317.381
lfingers 7.12502
lthumb -13.9231 -13.1055
rfemur -46.6462 -9.96842 36.8783
rtibia 43.6219
rfoot -1.97131 -26.7816
rtoes 0.881644
lfemur -35.1204 29.6136 -9.97906
ltibia 51.8313
lfoot -36.1915 37.6347
ltoes 13.3358
322
root -2.20411 16.9844 -19.3012 103.343 -77.1593 -449.443
lowerback -0.320411 -5.8072 -0.339441
upperback -4.10186 -7.85139 0.430665
thorax -3.94411 -3.93559 0.87179
lowerneck -13.0319 -6.58853 -12.4318
upperneck 24.8196 -11.4242 15.2833
head 11.917 -5.01821 6.09459
rclavicle -2.28602e-015 1.27222e-014
rhumerus -53.2379 -8.74815 -80.0711
rradius 26.4486
rwrist 5.69207
rhand -23.8833 -54.6154
rfingers 7.12502
rthumb 2.59003 -84.5794
lclavicle -2.28602e-015 1.27222e-014
lhumerus -5.46845 -14.4466 39.9658
lradius 56.7211
lwrist 6.86847
lhand -39.7963 316.299
lfingers 7.12502
lthumb -12.7714 -14.1119
rfemur -45.5491 -10.1607 37.6557
rtibia 43.5314
rfoot -2.82101 -26.7447
rtoes 0.187562
lfemur -33.9026 29.7782 -8.56947
ltibia 51.7899
lfoot -35.1572 37.5706
ltoes 13.3919
323
root -2.3019 16.991 -19.4038 106.832 -78.2592 -452.968
lowerback -1.21208 -5.83131 -0.603973
upperback -4.47703 -7.91653 0.125252
thorax -3.84192 -3.97698 0.630727
lowerneck -12.7256 -6.72033 -12.9282
upperneck 25.4124 -11.7308 15.4118
head 12.1823 -5.22371 6.21225
rclavicle 3.95675e-014 2.38542e-014
rhumerus -54.0049 -8.31374 -80.3867
rradius 26.5917
rwrist 6.33725
rhand -23.0376 -54.0207
rfingers 7.12502
rthumb 3.40681 -83.9732
lclavicle 3.95675e-014 2.38542e-014
lhumerus -5.95369 -15.6131 40.1778
lradius 57.9735
lwrist 7.81339
lhand -42.1896 319.453
lfingers 7.12502
lthumb -15.0778 -11.1158
rfemur -45.119 -10.1703 36.793
rtibia 43.5126
rfoot -3.83227 -26.3506
rtoes 1.0821
lfemur -32.9813 29.5271 -9.14336
ltibia 51.6943
lfoot -34.1252 38.0594
ltoes 12.4609
324
root -2.39116 17.0003 -19.48 116.795 -81.0648 -462.604
lowerback -2.50426 -5.9316 -2.7789
upperback -4.94744 -8.09743 -0.56024
thorax -3.41593 -4.0285 0.985422
lowerneck -12.3929 -6.89634 -13.1261
upperneck 25.584 -11.8714 14.906
head 12.1795 -5.37555 6.03278
rclavicle -3.09607e-014 -3.18055e-015
rhumerus -54.4201 -7.69115 -80.6348
rradius 26.5963
rwrist 7.40219
rhand -23.5367 -53.3711
rfingers 7.12502
rthumb 2.92478 -83.3307
lclavicle -3.09607e-014 -3.18055e-015
lhumerus -6.50041 -15.8117 40.6573
lradius 58.9905
lwrist 8.53529
lhand -44.7288 322.967
lfingers 7.12502
lthumb -17.5227 -7.80243
rfemur -45.5328 -10.2265 33.787
rtibia 43.7565
rfoot -5.05933 -25.5072
rtoes 3.23347
lfemur -32.2896 28.3723 -12.2182
ltibia 51.3379
lfoot -36.3516 37.8462
ltoes 14.7202
325
root -2.48654 16.9731 -19.6483 112.469 -79.2803 -460.014
lowerback -1.70577 -6.20359 -1.27734
upperback -4.60017 -8.42076 0.184722
thorax -3.58519 -4.21189 1.00622
lowerneck -11.7897 -6.92808 -11.0775
upperneck 25.2224 -11.6031 12.3455
head 11.5386 -5.33353 4.72289
rclavicle -3.90612e-014 -5.08889e-014
rhumerus -54.756 -6.99121 -80.9531
rradius 26.5629
rwrist 8.53524
rhand -24.0833 -53.006
rfingers 7.12502
rthumb 2.39695 -82.9723
lclavicle -3.90612e-014 -5.08889e-014
lhumerus -7.44504 -16.3213 40.6156
lradius 60.1999
lwrist 8.90139
lhand -44.9242 322.987
lfingers 7.12502
lthumb -17.7107 -7.79916
rfemur -42.9428 -9.63153 35.66
rtibia 43.8557
rfoot -7.55705 -26.0888
rtoes 6.56249
lfemur -29.5446 29.0022 -8.01252
ltibia 51.3317
lfoot -33.4155 37.7522
ltoes 13.701
326
root -2.58223 16.9588 -19.7669 115.628 -78.7539 -463.617
lowerback -2.22674 -6.33856 -0.665964
upperback -4.68054 -8.58545 0.705248
thorax -3.38207 -4.31179 1.14743
lowerneck -12.2353 -6.90066 -15.339
upperneck 26.2013 -11.7386 15.6034
head 12.5769 -5.49269 6.76629
rclavicle -8.68689e-014 -3.18055e-014
rhumerus -54.7155 -5.5603 -81.2935
rradius 26.5032
rwrist 8.73545
rhand -23.5352 -52.804
rfingers 7.12502
rthumb 2.92624 -82.7637
lclavicle -8.68689e-014 -3.18055e-014
lhumerus -8.1313 -14.3142 42.4579
lradius 59.7154
lwrist 6.37798
lhand -41.9862 318.974
lfingers 7.12502
lthumb -14.8819 -11.5807
rfemur -42.0393 -9.52565 36.4332
rtibia 43.964
rfoot -8.11853 -25.7819
rtoes 5.90933
lfemur -28.0514 28.3005 -6.30899
ltibia 51.2699
lfoot -33.7022 37.8371
ltoes 15.8009
327
root -2.66577 16.9568 -19.8521 126.568 -80.1501 -474.263
lowerback -3.38783 -6.47014 -1.83904
upperback -5.13163 -8.78447 0.306849
thorax -3.09329 -4.39832 1.25614
lowerneck -11.6078 -6.88472 -14.4597
upperneck 25.9717 -11.6226 14.4328
head 12.1772 -5.49779 6.15175
rclavicle 8.44835e-015 -1.59028e-014
rhumerus -54.8026 -4.15342 -82.2165
rradius 26.5013
rwrist 8.15114
rhand -22.8567 -52.4657
rfingers 7.12502
rthumb 3.58147 -82.4153
lclavicle 8.44835e-015 -1.59028e-014
lhumerus -8.98352 -13.5259 43.0156
lradius 60.1637
lwrist 5.3367
lhand -41.1869 317.045
lfingers 7.12502
lthumb -14.1117 -13.4541
rfemur -42.2883 -9.61937 34.8494
rtibia 43.9768
rfoot -7.77607 -25.1115
rtoes 4.26097
lfemur -27.5936 27.7126 -8.336
ltibia 51.3706
lfoot -34.7916 37.7329
ltoes 17.2496
328
root -2.74169 16.9487 -19.9767 130.427 -79.5274 -478.55
lowerback -3.66014 -6.53427 -1.4485
upperback -5.24973 -8.87384 0.536907
thorax -3.0833 -4.45588 1.25375
lowerneck -11.5596 -6.61141 -16.0592
upperneck 26.2516 -11.3054 15.627
head 12.4138 -5.41914 6.99479
rclavicle 5.4964e-014 2.38542e-014
rhumerus -54.8494 -3.37285 -82.6335
rradius 26.5017
rwrist 8.07405
rhand -22.6539 -52.283
rfingers 7.12502
rthumb 3.77728 -82.2293
lclavicle 5.4964e-014 2.38542e-014
lhumerus -10.0835 -13.7425 42.9827
lradius 61.6457
lwrist 6.86306
lhand -40.5555 316.833
lfingers 7.12502
lthumb -13.5033 -13.6252
rfemur -41.3717 -9.20979 35.3935
rtibia 43.9029
rfoot -8.82776 -24.9195
rtoes 5.67269
lfemur -26.3345 27.829 -7.13189
ltibia 51.5147
lfoot -32.869 38.3252
ltoes 16.1251
329
root -2.82155 16.9476 -20.0999 135.124 -78.6883 -483.717
lowerback -4.1159 -5.9981 -0.975844
upperback -5.27362 -8.17131 0.224754
thorax -2.98369 -4.13058 0.647355
lowerneck -10.2672 -6.79099 -13.7021
upperneck 25.6698 -11.8257 14.2753
head 11.749 -5.62279 5.93847
rclavicle 2.94201e-014 2.38542e-014
rhumerus -55.0814 -4.45279 -82.6817
rradius 26.4322
rwrist 8.10025
rhand -22.3012 -52.2818
rfingers 7.12502
rthumb 4.11796 -82.2217
lclavicle 2.94201e-014 2.38542e-014
lhumerus -9.98813 -15.021 42.4665
lradius 62.9913
lwrist 8.48711
lhand -48.7767 323.12
lfingers 7.12502
lthumb -21.4146 -8.04361
rfemur -40.3505 -8.43026 35.8002
rtibia 43.8442
rfoot -10.3131 -24.7284
rtoes 7.93451
lfemur -25.0045 28.4306 -5.96651
ltibia 51.7649
lfoot -32.2309 37.7345
ltoes 16.7122
330
root -2.8986 16.9296 -20.2079 139.845 -77.6997 -488.7
lowerback -4.6319 -6.3032 -0.399553
upperback -5.39196 -8.58885 0.748789
thorax -2.81745 -4.35703 0.805163
lowerneck -10.9311 -6.30818 -15.6787
upperneck 26.3903 -10.9196 14.9798
head 12.1822 -5.32066 6.74017
rclavicle -5.1684e-014 2.06736e-014
rhumerus -54.8603 -3.3097 -82.6832
rradius 26.5079
rwrist 8.89799
rhand -22.0034 -52.074
rfingers 7.12502
rthumb 4.40545 -82.0082
lclavicle -5.1684e-014 2.06736e-014
lhumerus -12.085 -13.458 42.8737
lradius 64.21
lwrist 8.67632
lhand -42.1946 316.782
lfingers 7.12502
lthumb -15.0827 -13.788
rfemur -39.4863 -7.8042 36.2662
rtibia 43.6331
rfoot -11.1823 -24.4042
rtoes 8.99392
lfemur -23.6974 27.9757 -4.56964
ltibia 52.07
lfoot -35.4974 34.9245
ltoes 22.5356
331
root -2.96718 16.9018 -20.315 144.064 -76.6639 -492.966
lowerback -5.28185 -6.08447 0.190567
upperback -5.54921 -8.3299 0.750673
thorax -2.70716 -4.25647 0.432943
lowerneck -10.2567 -6.33013 -14.1332
upperneck 26.0482 -10.9841 13.7428
head 11.733 -5.34919 5.9535
rclavicle -9.36276e-014 -3.65764e-014
rhumerus -54.7622 -3.5468 -82.696
rradius 26.4105
rwrist 9.5544
rhand -21.6493 -51.7082
rfingers 7.12502
rthumb 4.7474 -81.635
lclavicle -9.36276e-014 -3.65764e-014
lhumerus -12.5475 -12.8709 43.3319
lradius 64.929
lwrist 8.5381
lhand -36.3065 312.668
lfingers 7.12502
lthumb -9.40553 -17.562
rfemur -38.9401 -7.42066 36.8162
rtibia 43.5121
rfoot -11.7034 -23.8242
rtoes 9.53457
lfemur -22.8581 28.1446 -3.68447
ltibia 52.4705
lfoot -34.7778 35.0521
ltoes 23.5096
